<svg xmlns="http://www.w3.org/2000/svg" aria-hidden="true" overflow="hidden" style="position:absolute;width:0;height:0">
  <defs>
    <symbol id="icon-bullhorn" viewBox="0 0 32 32">
      <path d="M32 13.414c0-6.279-1.837-11.373-4.109-11.413L27.918 2h-2.592s-6.088 4.573-14.851 6.367c-.268 1.415-.438 3.102-.438 5.047s.171 3.631.438 5.047c8.763 1.794 14.851 6.367 14.851 6.367h2.592l-.027-.001C30.163 24.787 32 19.693 32 13.414zm-4.974 9.688c-.293 0-.61-.304-.773-.486-.395-.439-.775-1.124-1.1-1.979-.727-1.913-1.127-4.478-1.127-7.223s.4-5.309 1.127-7.223c.325-.855.705-1.54 1.1-1.979.163-.182.48-.486.773-.486s.61.304.773.486c.395.439.775 1.124 1.1 1.979.727 1.913 1.127 4.479 1.127 7.223s-.4 5.309-1.127 7.223c-.325.855-.705 1.54-1.1 1.979-.163.181-.48.486-.773.486zM7.869 13.414c0-1.623.119-3.201.345-4.659-1.48.205-2.779.323-4.386.323H1.732l-1.733 2.959v2.755l1.733 2.959h2.096c1.606 0 2.905.118 4.386.323a30.65 30.65 0 0 1-.345-4.659zm3.636 6.654-4-.766 2.558 10.048a.834.834 0 0 0 1.146.583l3.705-1.483a.853.853 0 0 0 .444-1.221l-3.853-7.161zm15.521-2.92c-.113 0-.235-.117-.298-.187-.152-.169-.299-.433-.424-.763-.28-.738-.434-1.726-.434-2.784s.154-2.046.434-2.784c.125-.33.272-.593.424-.763.063-.07.185-.187.298-.187s.235.117.298.187c.152.169.299.433.424.763.28.737.434 1.726.434 2.784s-.154 2.046-.434 2.784c-.125.33-.272.593-.424.763-.063.07-.185.187-.298.187z"/>
    </symbol>
    <symbol id="icon-envelop" viewBox="0 0 32 32">
      <path d="M29 4H3C1.35 4 0 5.35 0 7v20c0 1.65 1.35 3 3 3h26c1.65 0 3-1.35 3-3V7c0-1.65-1.35-3-3-3zM12.461 17.199 4 23.789V8.113l8.461 9.086zM5.512 8h20.976L16 15.875 5.512 8zm7.278 9.553L16 21l3.21-3.447L25.79 26H6.211l6.58-8.447zm6.749-.354L28 8.113v15.676l-8.461-6.59z"/>
    </symbol>
    <symbol id="icon-user-tie" viewBox="0 0 32 32">
      <path d="M10 6a6 6 0 1 1 12 0 6 6 0 0 1-12 0zm14.002 8h-1.107l-6.222 12.633L19 15l-3-3-3 3 2.327 11.633L9.105 14H7.998C4 14 4 16.687 4 20v10h24V20c0-3.313 0-6-3.998-6z"/>
    </symbol>
    <symbol id="icon-home" viewBox="0 0 32 32">
      <path d="M32 18.451 16 6.031 0 18.451v-5.064L16 .967l16 12.42zM28 18v12h-8v-8h-8v8H4V18l12-9z"/>
    </symbol>
    <symbol id="icon-calendar" viewBox="0 0 32 32">
      <path d="M10 12h4v4h-4zm6 0h4v4h-4zm6 0h4v4h-4zM4 24h4v4H4zm6 0h4v4h-4zm6 0h4v4h-4zm-6-6h4v4h-4zm6 0h4v4h-4zm6 0h4v4h-4zM4 18h4v4H4zM26 0v2h-4V0H8v2H4V0H0v32h30V0h-4zm2 30H2V8h26v22z"/>
    </symbol>
    <symbol id="icon-truck" viewBox="0 0 32 32">
      <path d="m32 18-4-8h-6V6c0-1.1-.9-2-2-2H2C.9 4 0 4.9 0 6v16l2 2h2.536a4 4 0 1 0 6.928 0h11.073a4 4 0 1 0 6.926 0H32v-6zm-10 0v-6h4.146l3 6H22z"/>
    </symbol>
  </defs>
</svg>
